<svg xmlns="http://www.w3.org/2000/svg" xmlns:xlink="http://www.w3.org/1999/xlink" width="66" height="40" viewBox="0 0 66 40">
  <defs>
    <clipPath id="clip-path">
      <rect id="Rectángulo_9708" data-name="Rectángulo 9708" width="66" height="40" transform="translate(75 562)" fill="none"/>
    </clipPath>
  </defs>
  <g id="Enmascarar_grupo_676" data-name="Enmascarar grupo 676" transform="translate(-75 -562)" clip-path="url(#clip-path)">
    <g id="Group_13587" data-name="Group 13587" transform="translate(22.953 560.1)">
      <path id="Path_1054" data-name="Path 1054" d="M488.9-162.317l7.872.879,5.311,1.6,5.293,3,2.677,3.257.921,3.444-.921,3.973-2.062,2.585-4.085,2.877-8.521,2.946-9.183.653-10.7-1.347-7.417-3.6-3.453-4.113-.854-4.37.854-3.047,3.95-3.944,5.169-2.645L480-161.828l5.117-.489Z" transform="translate(-401.296 171.681)" fill="#4d4d4d"/>
      <g id="Group_4214" data-name="Group 4214" transform="translate(62 8.85)">
        <path id="Path_24" data-name="Path 24" d="M24.046,26.05c-6.445,0-12.374-1.2-16.692-3.388C2.686,20.286,0,16.878,0,13.015c0-3.6,2.686-6.921,7.334-9.359A36.673,36.673,0,0,1,24.046,0C30.491,0,36.42,1.2,40.738,3.388c4.669,2.376,7.354,5.784,7.354,9.627,0,3.594-2.665,6.92-7.334,9.379A36.673,36.673,0,0,1,24.046,26.05M47.08,13.015C47.08,5.64,36.771.909,24.046.909S1.012,6.342,1.012,13.015c0,7.375,10.308,12.106,23.034,12.106,12.725.021,23.034-5.412,23.034-12.106" fill="#4d4d4d"/>
        <path id="Path_25" data-name="Path 25" d="M61.55,41.294a.424.424,0,0,0-.6.021.976.976,0,0,1-.847.331,1.1,1.1,0,0,1-.806-.661,1.037,1.037,0,0,1-.1-.269,5.1,5.1,0,0,0,.165-1.343c0-1.219-.269-1.384-.578-1.384a.481.481,0,0,0-.413.248,2.252,2.252,0,0,0-1.859-.083,2.355,2.355,0,0,0-1.322,1.715,3.029,3.029,0,0,0,.041,1.3,1.643,1.643,0,0,1-1.653.372,1.036,1.036,0,0,1-.289-.165,14.9,14.9,0,0,0,.454-5.784c-.165-1.839-.7-2.892-1.467-2.892h-.041c-.764.021-1.239,1.116-1.3,2.975-.083,2.768.413,4.855,1.363,5.95a4.894,4.894,0,0,1-.826,1.363,2.544,2.544,0,0,1-3.863,0,4.711,4.711,0,0,1-.826-1.425,8.972,8.972,0,0,0,1.632-5.309c.1-1.9-.372-3.223-1.2-3.285-.847-.062-1.446,1.157-1.673,3.471a13.828,13.828,0,0,0,.269,4.9A1.436,1.436,0,0,1,43.723,41a2.878,2.878,0,0,1-.331-.723,6.255,6.255,0,0,0,.165-1.4c0-.31,0-1.116-.578-1.116-.413,0-.6.413-.6,1.322A6.021,6.021,0,0,0,42.5,40.3a3.18,3.18,0,0,1-.413.93.912.912,0,0,1-.764.475.924.924,0,0,1-.806-.434,2.286,2.286,0,0,1-.248-.558,5.725,5.725,0,0,0,.165-1.4c0-.971-.186-1.4-.6-1.4-.207,0-.578,0-.578,1.549a5.811,5.811,0,0,0,.145,1.3,1.146,1.146,0,0,1-1.054.888c-.847,0-1.033-.847-1.074-1.2a5.775,5.775,0,0,1,.021-1.384c.041-.331.062-.62-.165-.806a.692.692,0,0,0-.6-.1A3.949,3.949,0,0,1,35,38.216a1.98,1.98,0,0,0-.248-.475.588.588,0,0,0-.785-.124.6.6,0,0,0-.248.785,1.143,1.143,0,0,0,.6.5,3.163,3.163,0,0,1-.454,2.376,1,1,0,0,1-1.735-.289,1.038,1.038,0,0,1-.1-.269,5.1,5.1,0,0,0,.165-1.343c0-1.219-.269-1.384-.578-1.384a.5.5,0,0,0-.413.248,2.255,2.255,0,0,0-1.859-.083,2.355,2.355,0,0,0-1.322,1.715,2.813,2.813,0,0,0,.062,1.322c.021.083.062.145.083.227A3.407,3.407,0,0,1,25.42,42.74a2.956,2.956,0,0,1-2.851-1.756,4.556,4.556,0,0,1,.5-4.627,3.1,3.1,0,0,1,3.14-1.281,1.326,1.326,0,0,1,1.012,1.136,1.885,1.885,0,0,1-.64,1.57.426.426,0,1,0,.537.661,2.762,2.762,0,0,0,.971-2.334,2.207,2.207,0,0,0-1.611-1.859,3.94,3.94,0,0,0-4.054,1.55,5.4,5.4,0,0,0-.682,5.578,3.931,3.931,0,0,0,3.7,2.293,4.252,4.252,0,0,0,3.258-1.53,1.767,1.767,0,0,0,1.178.434,2,2,0,0,0,1.715-.868,1.743,1.743,0,0,0,1.26.785,1.926,1.926,0,0,0,1.673-.661,3.749,3.749,0,0,0,.7-2.727,4.252,4.252,0,0,0,1.136-.041q.155-.031.124.124a6.13,6.13,0,0,0,.021,1.363,1.965,1.965,0,0,0,1.921,1.963,1.66,1.66,0,0,0,1.446-.785,1.712,1.712,0,0,0,1.508.806,1.821,1.821,0,0,0,1.632-1.116,2.225,2.225,0,0,0,1.963,1.074,2.026,2.026,0,0,0,1.136-.331,5.331,5.331,0,0,0,.868,1.4,3.4,3.4,0,0,0,2.562,1.178,3.338,3.338,0,0,0,2.541-1.157,5.7,5.7,0,0,0,.888-1.384c.083.041.186.1.269.145a2.332,2.332,0,0,0,2.355-.434,1.858,1.858,0,0,0,1.4.661,2,2,0,0,0,1.715-.868,1.885,1.885,0,0,0,1.239.785,1.806,1.806,0,0,0,1.591-.578.43.43,0,0,0,0-.62m-30.615-.1a1.186,1.186,0,0,1-1.033.537.992.992,0,0,1-.764-.351,1.547,1.547,0,0,1-.248-1.322,1.49,1.49,0,0,1,.847-1.1,1.156,1.156,0,0,1,.516-.1,1.653,1.653,0,0,1,.785.207,5.3,5.3,0,0,0,.124,1.673,1.343,1.343,0,0,1-.227.454M46.42,36.523a5.926,5.926,0,0,1,.6-2.479c.1-.165.248-.145.331.021a4.633,4.633,0,0,1,.269,2.169,9.4,9.4,0,0,1-1.1,4.338,13.159,13.159,0,0,1-.1-4.049m6.239,4.132a9.337,9.337,0,0,1-.847-4.917,4.645,4.645,0,0,1,.331-1.9c.083-.165.227-.186.331-.021a4.58,4.58,0,0,1,.454,1.88,15.645,15.645,0,0,1-.269,4.958m5.412.537a1.186,1.186,0,0,1-1.033.537.992.992,0,0,1-.764-.351,1.666,1.666,0,0,1,.6-2.417,1.188,1.188,0,0,1,.537-.1,1.653,1.653,0,0,1,.785.207,5.3,5.3,0,0,0,.124,1.673c-.083.165-.165.31-.248.454" transform="translate(-16.867 -25.945)" fill="#fff"/>
      </g>
    </g>
  </g>
</svg>
