<svg xmlns="http://www.w3.org/2000/svg" xmlns:xlink="http://www.w3.org/1999/xlink" width="66" height="40" viewBox="0 0 66 40">
  <defs>
    <clipPath id="clip-path">
      <rect id="Rectángulo_9709" data-name="Rectángulo 9709" width="66" height="40" transform="translate(261 562)" fill="none" stroke="#707070" stroke-width="1"/>
    </clipPath>
  </defs>
  <g id="Enmascarar_grupo_677" data-name="Enmascarar grupo 677" transform="translate(-261 -562)" clip-path="url(#clip-path)">
    <g id="Grupo_14721" data-name="Grupo 14721" transform="translate(1 -38)">
      <g id="Grupo_14721-2" data-name="Grupo 14721" transform="translate(-215.93 -198.728)">
        <path id="Trazado_7935" data-name="Trazado 7935" d="M506.735,843.9c-2.332,0-4.327,2.227-4.285,3.718s2.6,2.122,2.773,2.185c.168.084,1.2.378,1.2,1.155-.021.777-1.2,1.47-1.785,1.47-.588-.021-.735-.777-.021-1.26a1.064,1.064,0,0,0-.735-.21,2.152,2.152,0,0,0-2.29,1.87s-.189,2.08,2.458,2.08a4.437,4.437,0,0,0,4.642-4.138,3.277,3.277,0,0,0-2.164-3.046s-1.239-.567-1.2-1.365c.021-.8,1.2-.819,1.323-.819.126.021.567.021.567.4,0,0,.084.714-.84.273a1.229,1.229,0,0,0,1.176,1.323A1.31,1.31,0,0,0,509,846.211a2.225,2.225,0,0,0-2.269-2.311m24.535,2.92a4.09,4.09,0,0,0-2.143.924v-.861h-2.29v4.348a3.059,3.059,0,0,1-2.038,1.323.878.878,0,0,1-.861-.546,2.742,2.742,0,0,0,2.584-2.752s.1-2.353-2.038-2.416c0,0-2.311-.21-3.235,3.109,0,0-.189-3.088-2.1-3.13a2.47,2.47,0,0,0-1.7.735v-.693h-2.29v4.726s.021.357-.231.378c0,0-.294.021-.273-.378v-4.726h-2.143v4.768s0,.567-.462.525c0,0-.4,0-.4-.546v-4.747H509.4v4.5s-.063,2.269,1.785,2.332c0,0,1.26.063,1.365-.924,0,0,.483.966,1.3.924a1.5,1.5,0,0,0,1.26-.672v2.773h2.332v-2.983a2.125,2.125,0,0,0,1.807.9c1.239-.021,1.932-2.122,1.974-2.731,0,0,.063,2.752,2.668,2.752a3.712,3.712,0,0,0,2.962-1.3v1.26h2.164s-.462-4.684,1.68-4.915c0,0,.63-.1.588.609,0,0,.021.5-.84.21,0,0,.021,1.092,1.617,1.281,0,0,1.155.084,1.26-1.554a2.152,2.152,0,0,0-2.059-2.5m-13.15,5.356a.608.608,0,0,1-.651-.588v-2.983c0-.42.483-.462.483-.462.945.042.945,1.533.966,2.185s-.147,1.87-.8,1.849m5.419-1.134s-.441-2.353,1.134-2.5a.628.628,0,0,1,.609.651c0,.63-.945,1.87-1.743,1.849" transform="translate(-14.366 -35.468)" fill="#575757"/>
        <path id="Trazado_7936" data-name="Trazado 7936" d="M545.1,902.821H542.75v8.486h6.512v-2.332H545.1v-.8h3.592v-2.353H545.1v-.63h4.159v-2.374Zm-22.2,8.528h2.416v-8.528H522.9Zm32.076-3.445s2.059-2.038,2.1-3.445c.021-1.386-1.806-1.617-2.353-1.617h-.231l-2-.021h-2.353v8.528H552.5v-2.311l3.907,3.193h3.907Zm-1.176-2.311c-.1.1-1.239,1.176-1.239,1.176v-1.722h1.05s.336.021.336.252a.9.9,0,0,1-.147.294m-14.158-2.773h-4.5v2.374h2.143v6.176h2.353v-6.176h2.206v-2.374Zm-7.73,3.928-3.235-3.949H526.3v8.528h2.353V906.9l3.235,4.411v.042h2.353v-8.528H531.89Z" transform="translate(-31.203 -81.996)" fill="#171717"/>
        <path id="Trazado_7937" data-name="Trazado 7937" d="M653.032,897.32a.207.207,0,0,0,.189-.21.194.194,0,0,0-.189-.21h-1.6a1.162,1.162,0,0,1-.714.231,1.209,1.209,0,0,1-.714-.231h-5a1.162,1.162,0,0,1-.714.231,1.209,1.209,0,0,1-.714-.231h-4.39a.207.207,0,0,0-.189.21.194.194,0,0,0,.189.21" transform="translate(-122.915 -77.335)" fill="#575757"/>
        <path id="Trazado_7938" data-name="Trazado 7938" d="M699.252,889.183h.231a.427.427,0,0,0,.189-.294c0-.084-.063-.147-.189-.147-.042,0-.21-.021-.483-.042a1.072,1.072,0,0,1,.252.483" transform="translate(-170.312 -70.858)" fill="#434b82"/>
        <path id="Trazado_7939" data-name="Trazado 7939" d="M667.251,887.956c1.281,0,2.857.021,4.138.021a1.142,1.142,0,0,1,.336-.546c-1.68-.084-3.907-.168-5.125-.231a1.168,1.168,0,0,1,.651.756" transform="translate(-144.718 -69.673)" fill="#575757"/>
        <path id="Trazado_7940" data-name="Trazado 7940" d="M671.267,842.99l-9.347,1.092c-.084.021-.084.063-.063.084,0,.021,0,.042.084.063a2.69,2.69,0,0,0,.462.021h.147c.651-.021,3.571-.126,5.755-.21l-.315,1.47c-.735.042-1.491.1-2.206.147.126-.441.21-.8.252-.924-.21-.483-.567-.1-.588-.021,0,.021-.084.441-.168.987-1.092.084-1.932.126-2.038.147-.189.042-.063.147,0,.126h2c-.084.525-.189,1.113-.294,1.638l-1.933.126c-.273.126.063.147.063.147l1.806-.042c-.126.693-.21,1.218-.21,1.218.084.336.21-.021.21-.021s.126-.525.315-1.2l2.29-.063-.21.924s.105.21.189-.021c.021-.063.147-.42.315-.924l1.554-.042c.483-.294-.063-.42-.063-.42l-1.365.084.483-1.449h2.164c-.252,1.092-.546,2.311-.588,2.458-.084.273.105.21.105.21l.042-.084s1.323-3.445,1.7-4.642c.273-.819-.231-.9-.546-.882m-3.718,4.432-2.311.147c.147-.525.294-1.113.42-1.617h2.185Zm3.445-3.256s-.1.483-.273,1.134c-.315.021-1.155.084-2.143.147.231-.693.42-1.281.483-1.449.987-.042,1.68-.063,1.764-.063.21,0,.168.231.168.231" transform="translate(-140.961 -34.747)" fill="#575757"/>
        <path id="Trazado_7941" data-name="Trazado 7941" d="M651.789,843.562c.336.336.924.861.924.882a.78.78,0,0,1,.126.189,1.958,1.958,0,0,1,.189.5c.1.441.861,3.928.861,3.928a1.42,1.42,0,0,1,.021.252,1.992,1.992,0,0,1-.294,1.092c-.4.63-1.155,1.743-1.155,1.743a1.087,1.087,0,0,0-.1.42.425.425,0,0,0,.126.336.752.752,0,0,0,.5.168h.147a1.107,1.107,0,0,1,.735-.756h-.042a.473.473,0,0,1-.147-.021c-.063-.021-.105-.063-.105-.105a.433.433,0,0,1,.126-.252c.4-.483,1.113-1.3,1.113-1.3l.021-.021c.042-.042.336-.315,1.47-.357,1.407-.063,3.655-.231,4.222-.273a7,7,0,0,0,.777-.1c.21-.042.357-.063.42-.147a1.549,1.549,0,0,0,.189-.441v-.042a.135.135,0,0,0-.126-.126c-.063,0-.1.042-.147.105a.455.455,0,0,1-.126.147c-.042.042-.063.042-.063.042h-.021a.723.723,0,0,1-.294.063c-.105.021-1.512.042-2.878.084l-2.71.084h-.042a.869.869,0,0,1-.819-.63c-.126-.357-.462-1.512-.735-2.584-.294-1.071-.546-2.058-.546-2.058a1.036,1.036,0,0,0-.42-.525c-.294-.189-1.218-.756-1.218-.756h0a.159.159,0,0,0-.084.021.1.1,0,0,0-.084.1.159.159,0,0,0,.021.084c-.021.063.063.147.168.252" transform="translate(-132.868 -34.837)" fill="#575757"/>
        <path id="Trazado_7942" data-name="Trazado 7942" d="M691.187,887.7a.987.987,0,1,0,.987.987.986.986,0,0,0-.987-.987m0,1.449a.462.462,0,1,1,.462-.462.481.481,0,0,1-.462.462" transform="translate(-163.36 -70.068)" fill="#575757"/>
        <path id="Trazado_7943" data-name="Trazado 7943" d="M660.487,887.7a.987.987,0,1,0,.987.987.986.986,0,0,0-.987-.987m0,1.428a.462.462,0,1,1,.462-.462.453.453,0,0,1-.462.462" transform="translate(-139.109 -70.068)" fill="#575757"/>
      </g>
    </g>
  </g>
</svg>
