<svg xmlns="http://www.w3.org/2000/svg" xmlns:xlink="http://www.w3.org/1999/xlink" width="74" height="40" viewBox="0 0 74 40">
  <defs>
    <clipPath id="clip-path">
      <rect id="Rectángulo_9710" data-name="Rectángulo 9710" width="74" height="40" transform="translate(361 562)" fill="none"/>
    </clipPath>
  </defs>
  <g id="Enmascarar_grupo_678" data-name="Enmascarar grupo 678" transform="translate(-361 -562)" clip-path="url(#clip-path)">
    <g id="Grupo_14720" data-name="Grupo 14720" transform="translate(-92 -171)">
      <path id="Trazado_7869" data-name="Trazado 7869" d="M431.2,342.2H373.5v14.24a4.5,4.5,0,0,0,4.5,4.5h53.2a4.5,4.5,0,0,0,4.5-4.5V346.7A4.486,4.486,0,0,0,431.2,342.2Z" transform="translate(85.301 403.28)" fill="#5b5b5b"/>
      <path id="Trazado_7870" data-name="Trazado 7870" d="M382.136,363.812h53.2a3.345,3.345,0,0,0,3.336-3.336v-9.74a3.33,3.33,0,0,0-3.336-3.336H378.8v13.076A3.345,3.345,0,0,0,382.136,363.812Z" transform="translate(81.188 399.244)" fill="#fff"/>
      <path id="Trazado_7871" data-name="Trazado 7871" d="M438.728,351.8H383.2v12.091a2.351,2.351,0,0,0,2.351,2.351h53.2a2.351,2.351,0,0,0,2.351-2.351v-9.74A2.385,2.385,0,0,0,438.728,351.8Z" transform="translate(77.772 395.829)" fill="#636363"/>
      <g id="Grupo_14631" data-name="Grupo 14631" transform="translate(463.368 749.734)">
        <g id="Grupo_14629" data-name="Grupo 14629" transform="translate(0 1.567)">
          <path id="Trazado_7872" data-name="Trazado 7872" d="M398.02,370.775c-.157-.582-.493-1.187-1.164-1.187a.99.99,0,0,0-1.03.985c0,1.657,3.963.582,3.963,3.717a2.653,2.653,0,0,1-2.866,2.575,2.758,2.758,0,0,1-3.023-2.418l1.679-.246c.157.716.515,1.254,1.321,1.254a1.071,1.071,0,0,0,1.209-1.075c0-1.7-3.963-.716-3.963-3.582a2.643,2.643,0,0,1,2.732-2.6,2.519,2.519,0,0,1,2.642,2.351Z" transform="translate(-393.9 -368.2)" fill="#e4e4e4"/>
          <path id="Trazado_7873" data-name="Trazado 7873" d="M428.211,368.6v5.844a2.965,2.965,0,0,1-5.911,0V368.6H424v5.284c0,1.411.425,1.836,1.276,1.836s1.276-.425,1.276-1.836V368.6Z" transform="translate(-415.941 -368.51)" fill="#e4e4e4"/>
          <path id="Trazado_7874" data-name="Trazado 7874" d="M454.814,368.6a2.478,2.478,0,0,1,2.687,2.463,2.344,2.344,0,0,1-1.433,2.127l2.015,3.851h-1.769l-1.858-3.493h-1.276v3.493H451.5V368.6Zm-.9,3.515c.739,0,1.858.045,1.858-1.008,0-1.164-1.142-1.052-1.97-1.052h-.627v2.06Z" transform="translate(-438.603 -368.51)" fill="#e4e4e4"/>
          <path id="Trazado_7875" data-name="Trazado 7875" d="M485.468,370.033h-2.194v7.008h-1.679v-7.008H479.4V368.6h6.068v1.433Z" transform="translate(-460.256 -368.51)" fill="#e4e4e4"/>
          <path id="Trazado_7876" data-name="Trazado 7876" d="M508.8,377.041V368.6h1.679v8.441Z" transform="translate(-483.074 -368.51)" fill="#e4e4e4"/>
        </g>
        <g id="Grupo_14630" data-name="Grupo 14630" transform="translate(28.57)">
          <path id="Trazado_7877" data-name="Trazado 7877" d="M527.792,361.2h3.314v10.1H529.09v-8.06h-.023l-1.858,8.06H525.4l-1.858-8.06h-.022v8.06H521.5V361.2h3.314l1.5,6.851Z" transform="translate(-521.5 -361.2)" fill="#fff"/>
          <path id="Trazado_7878" data-name="Trazado 7878" d="M570.819,371.3h-2.06l-.649-2.53h-2.978l-.672,2.53H562.4l2.821-10.1h2.732Zm-4.187-8.351h-.045l-1.052,4.232h2.172Z" transform="translate(-553.242 -361.2)" fill="#fff"/>
          <path id="Trazado_7879" data-name="Trazado 7879" d="M597.484,366.171l3.067,5.15H598.2l-1.836-3.291-1.926,3.291H592.2l3.09-5.15-2.821-4.971h2.351l1.634,3.247L598.2,361.2h2.239Z" transform="translate(-576.37 -361.2)" fill="#fff"/>
        </g>
      </g>
    </g>
  </g>
</svg>
